# Blender 4.0.2
# www.blender.org
o Circle
v 0.000000 0.000000 -1.000000
v -0.195090 0.000000 -0.980785
v -0.382683 0.000000 -0.923880
v -0.555570 0.000000 -0.831470
v -0.707107 0.000000 -0.707107
v -0.831470 0.000000 -0.555570
v -0.923880 0.000000 -0.382683
v -0.980785 0.000000 -0.195090
v -1.000000 0.000000 0.000000
v -0.980785 0.000000 0.195090
v -0.923880 0.000000 0.382683
v -0.831470 0.000000 0.555570
v -0.707107 0.000000 0.707107
v -0.555570 0.000000 0.831470
v -0.382683 0.000000 0.923880
v -0.195090 0.000000 0.980785
v 0.000000 0.000000 1.000000
v 0.195090 0.000000 0.980785
v 0.382683 0.000000 0.923880
v 0.555570 0.000000 0.831470
v 0.707107 0.000000 0.707107
v 0.831470 0.000000 0.555570
v 0.923880 0.000000 0.382683
v 0.980785 0.000000 0.195090
v 1.000000 0.000000 0.000000
v 0.980785 0.000000 -0.195090
v 0.923880 0.000000 -0.382683
v 0.831470 0.000000 -0.555570
v 0.707107 0.000000 -0.707107
v 0.555570 0.000000 -0.831470
v 0.382683 0.000000 -0.923880
v 0.195090 0.000000 -0.980785
vn -0.0000 1.0000 -0.0000
vt 0.019311 0.645816
vt 0.354184 0.019311
vt 0.980689 0.354184
vt 0.999900 0.450764
vt 0.943006 0.736791
vt 0.999900 0.549236
vt 0.980689 0.645815
vt 0.888298 0.818668
vt 0.818668 0.888298
vt 0.736792 0.943006
vt 0.645816 0.980689
vt 0.549236 0.999900
vt 0.263209 0.943006
vt 0.450764 0.999900
vt 0.354185 0.980689
vt 0.181332 0.888298
vt 0.111702 0.818668
vt 0.056994 0.736792
vt 0.000100 0.549236
vt 0.056994 0.263209
vt 0.000100 0.450764
vt 0.019311 0.354185
vt 0.111702 0.181332
vt 0.181332 0.111702
vt 0.263208 0.056994
vt 0.450764 0.000100
vt 0.736791 0.056994
vt 0.549236 0.000100
vt 0.645815 0.019311
vt 0.818667 0.111702
vt 0.888298 0.181332
vt 0.943006 0.263208
s 0
f 17/1/1 25/2/1 1/3/1
f 1/3/1 2/4/1 5/5/1
f 2/4/1 3/6/1 5/5/1
f 3/6/1 4/7/1 5/5/1
f 5/5/1 6/8/1 7/9/1
f 7/9/1 8/10/1 5/5/1
f 8/10/1 9/11/1 5/5/1
f 9/11/1 10/12/1 13/13/1
f 10/12/1 11/14/1 13/13/1
f 11/14/1 12/15/1 13/13/1
f 13/13/1 14/16/1 15/17/1
f 15/17/1 16/18/1 13/13/1
f 16/18/1 17/1/1 13/13/1
f 17/1/1 18/19/1 21/20/1
f 18/19/1 19/21/1 21/20/1
f 19/21/1 20/22/1 21/20/1
f 21/20/1 22/23/1 23/24/1
f 23/24/1 24/25/1 21/20/1
f 24/25/1 25/2/1 21/20/1
f 25/2/1 26/26/1 29/27/1
f 26/26/1 27/28/1 29/27/1
f 27/28/1 28/29/1 29/27/1
f 29/27/1 30/30/1 31/31/1
f 31/31/1 32/32/1 29/27/1
f 32/32/1 1/3/1 29/27/1
f 1/3/1 5/5/1 9/11/1
f 9/11/1 13/13/1 17/1/1
f 17/1/1 21/20/1 25/2/1
f 25/2/1 29/27/1 1/3/1
f 1/3/1 9/11/1 17/1/1
